<svg xmlns="http://www.w3.org/2000/svg" viewBox="0 0 263.5 93"><defs><style>.cls-1{fill:#009fe3;}.cls-2{fill:#fff;}</style></defs><g id="Capa_2" data-name="Capa 2"><g id="Logo"><rect class="cls-1" width="263.5" height="93" rx="46.5"/><path class="cls-2" d="M180.25,37.64h-3.48V58.18a4.78,4.78,0,0,1-4.87,4.7H150.44a4.78,4.78,0,0,1-4.87-4.7V37.64H142a4.89,4.89,0,0,0-.05.66V59.78c0,3.33,3.35,6,7.48,6h23.4c4.12,0,7.47-2.69,7.47-6V38.3a4.89,4.89,0,0,0-.05-.66"/><rect class="cls-2" x="151.55" y="34" width="7.04" height="6.38"/><rect class="cls-2" x="163.88" y="34" width="7.04" height="6.38"/><path class="cls-2" d="M227.13,45.69H231V65.38h-3.86Zm-.1-8.17h3.86V41.1H227Z"/><path class="cls-2" d="M233.59,45.69h3.86V65.38h-3.86Zm-.1-8.17h3.86V41.1h-3.86Z"/><path class="cls-2" d="M216.35,61.36a5,5,0,1,1,5-5,5,5,0,0,1-5,5m0-14.19a9.08,9.08,0,0,0-5,1.48v-11h-4.19V56.33a9.16,9.16,0,1,0,9.16-9.16"/><path class="cls-2" d="M201,37.64V55.08a6.63,6.63,0,0,1-5,6.44,9.84,9.84,0,0,1-1.59.13,9.47,9.47,0,0,1-1.55-.12,6.64,6.64,0,0,1-5.09-6.45V37.64h-3.86V56.09h0a10.5,10.5,0,0,0,20.9,0h.05V37.64Z"/><path class="cls-2" d="M27.29,62.46v-32H41.36c6.72,0,10.46,4.61,10.46,10s-3.79,10-10.46,10H32.91v12Zm18.77-22c0-3.08-2.3-5.09-5.47-5.09H32.91V45.57h7.68C43.76,45.57,46.06,43.55,46.06,40.48Z"/><path class="cls-2" d="M69.53,62.46V60A9.81,9.81,0,0,1,62,63C58.25,63,54,60.5,54,55.36,54,50,58.25,47.82,62,47.82a9.58,9.58,0,0,1,7.49,3V47.34c0-2.69-2.21-4.32-5.42-4.32A9.51,9.51,0,0,0,57.24,46l-2.06-3.5a13.77,13.77,0,0,1,9.74-3.75c5.14,0,9.65,2.16,9.65,8.4V62.46Zm0-5.28v-3.5A6.76,6.76,0,0,0,64,51.28c-2.83,0-4.94,1.63-4.94,4.17s2.11,4.13,4.94,4.13A6.76,6.76,0,0,0,69.53,57.18Z"/><path class="cls-2" d="M80.81,68.42l2.35-3.65c1.88,2.16,4.28,3,7.35,3,3.31,0,6.86-1.53,6.86-6.28V58.67a9.4,9.4,0,0,1-7.44,3.84c-5.9,0-10.27-4.27-10.27-11.9S84,38.7,89.93,38.7a9.22,9.22,0,0,1,7.44,3.79V39.28h5v22c0,8.36-6.19,10.61-11.9,10.61C86.57,71.87,83.64,71,80.81,68.42ZM97.37,54.93V46.29a7.51,7.51,0,0,0-6-3.12c-4,0-6.53,3-6.53,7.44s2.55,7.44,6.53,7.44A7.54,7.54,0,0,0,97.37,54.93Z"/><path class="cls-2" d="M123.1,62.46V60A9.82,9.82,0,0,1,115.61,63c-3.79,0-8.06-2.54-8.06-7.68,0-5.33,4.27-7.54,8.06-7.54a9.58,9.58,0,0,1,7.49,3V47.34c0-2.69-2.21-4.32-5.43-4.32A9.49,9.49,0,0,0,110.81,46l-2.06-3.5a13.74,13.74,0,0,1,9.74-3.75c5.14,0,9.65,2.16,9.65,8.4V62.46Zm0-5.28v-3.5a6.76,6.76,0,0,0-5.52-2.4c-2.83,0-5,1.63-5,4.17s2.12,4.13,5,4.13A6.76,6.76,0,0,0,123.1,57.18Z"/></g></g></svg>