<?xml version="1.0" encoding="utf-8"?>
<!-- Generator: Adobe Illustrator 24.2.0, SVG Export Plug-In . SVG Version: 6.00 Build 0)  -->
<svg version="1.1" id="Capa_1" xmlns="http://www.w3.org/2000/svg" xmlns:xlink="http://www.w3.org/1999/xlink" x="0px" y="0px"
	 viewBox="0 0 265.5 95" style="enable-background:new 0 0 265.5 95;" xml:space="preserve">
<style type="text/css">
	.st0{fill:none;stroke:#FFFFFF;stroke-width:2;stroke-miterlimit:10;}
	.st1{fill:#FFFFFF;}
	.st2{fill:#FFFFFF;stroke:#00AAEB;stroke-width:2;stroke-miterlimit:10;}
	.st3{fill:#00AAEB;}
	.st4{fill:#00AAEB;stroke:#00AAEB;stroke-width:2;stroke-miterlimit:10;}
</style>
<path class="st0" d="M47.5,1H218c25.7,0,46.5,20.8,46.5,46.5l0,0c0,25.7-20.8,46.5-46.5,46.5H47.5C21.8,94,1,73.2,1,47.5l0,0
	C1,21.8,21.8,1,47.5,1z"/>
<path class="st1" d="M181.3,38.6h-3.5v20.5c0,2.6-2.2,4.7-4.9,4.7c0,0,0,0,0,0h-21.5c-2.6,0.1-4.8-2-4.9-4.7c0,0,0,0,0,0V38.6H143
	c0,0.2,0,0.4-0.1,0.7v21.5c0,3.3,3.4,6,7.5,6h23.4c4.1,0,7.5-2.7,7.5-6V39.3C181.3,39.1,181.3,38.9,181.3,38.6"/>
<rect x="152.6" y="35" class="st1" width="7" height="6.4"/>
<rect x="164.9" y="35" class="st1" width="7" height="6.4"/>
<path class="st1" d="M228.1,46.7h3.9v19.7h-3.9L228.1,46.7z M228,38.5h3.9v3.6H228L228,38.5z"/>
<path class="st1" d="M234.6,46.7h3.9v19.7h-3.9V46.7z M234.5,38.5h3.9v3.6h-3.9V38.5z"/>
<path class="st1" d="M217.4,62.4c-2.8,0-5-2.2-5-5s2.2-5,5-5s5,2.2,5,5S220.1,62.4,217.4,62.4 M217.4,48.2c-1.8,0-3.5,0.5-5,1.5v-11
	h-4.2v18.7c0,5.1,4.1,9.2,9.2,9.2s9.2-4.1,9.2-9.2S222.4,48.2,217.4,48.2"/>
<path class="st1" d="M202,38.6v17.4c0,3-2.1,5.7-5,6.4c-0.5,0.1-1.1,0.1-1.6,0.1c-0.5,0-1,0-1.6-0.1c-3-0.7-5.1-3.4-5.1-6.5V38.6
	h-3.9v18.5l0,0c0.6,5.8,5.7,10,11.5,9.4c5-0.5,8.9-4.4,9.4-9.4h0.1V38.6H202z"/>
<path class="st1" d="M28.3,63.5v-32h14.1c6.7,0,10.5,4.6,10.5,10s-3.8,10-10.5,10h-8.5v12H28.3z M47.1,41.5c0-3.1-2.3-5.1-5.5-5.1
	h-7.7v10.2h7.7C44.8,46.6,47.1,44.5,47.1,41.5L47.1,41.5z"/>
<path class="st1" d="M70.5,63.5V61c-2,2-4.7,3.1-7.5,3c-3.8,0-8-2.5-8-7.6c0-5.4,4.3-7.5,8-7.5c2.8-0.2,5.6,0.9,7.5,3v-3.5
	c0-2.7-2.2-4.3-5.4-4.3c-2.6,0-5.1,1.1-6.8,3l-2.1-3.5c2.6-2.5,6.1-3.8,9.7-3.8c5.1,0,9.7,2.2,9.7,8.4v15.3H70.5z M70.5,58.2v-3.5
	c-1.4-1.6-3.4-2.5-5.5-2.4c-2.8,0-4.9,1.6-4.9,4.2s2.1,4.1,4.9,4.1C67.1,60.7,69.2,59.8,70.5,58.2z"/>
<path class="st1" d="M81.8,69.4l2.3-3.7c1.9,2.2,4.3,3,7.3,3c3.3,0,6.9-1.5,6.9-6.3v-2.8c-1.7,2.4-4.5,3.8-7.4,3.8
	c-5.9,0-10.3-4.3-10.3-11.9S85,39.7,90.9,39.7c2.9,0,5.7,1.4,7.4,3.8v-3.2h5v22c0,8.4-6.2,10.6-11.9,10.6
	C87.6,72.9,84.6,72,81.8,69.4z M98.4,55.9v-8.6c-1.4-1.9-3.6-3.1-6-3.1c-4,0-6.5,3-6.5,7.4s2.6,7.4,6.5,7.4
	C94.8,59,97,57.9,98.4,55.9z"/>
<path class="st1" d="M124.1,63.5V61c-2,2-4.7,3.1-7.5,3c-3.8,0-8.1-2.5-8.1-7.7c0-5.3,4.3-7.5,8.1-7.5c2.8-0.2,5.6,0.9,7.5,3v-3.4
	c0-2.7-2.2-4.3-5.4-4.3c-2.6,0-5.1,1.1-6.9,3l-2.1-3.5c2.6-2.5,6.1-3.8,9.7-3.8c5.1,0,9.7,2.2,9.7,8.4v15.3H124.1z M124.1,58.2v-3.5
	c-1.4-1.6-3.4-2.5-5.5-2.4c-2.8,0-5,1.6-5,4.2s2.1,4.1,5,4.1C120.7,60.7,122.7,59.8,124.1,58.2z"/>
<g>
	<path class="st2" d="M346.8,1.1h170.5c25.7,0,46.5,20.8,46.5,46.5l0,0c0,25.7-20.8,46.5-46.5,46.5H346.8
		c-25.7,0-46.5-20.8-46.5-46.5l0,0C300.3,21.9,321.1,1.1,346.8,1.1z"/>
	<path class="st3" d="M480.6,38.8h-3.5v20.5c0,2.6-2.2,4.7-4.9,4.7c0,0,0,0,0,0h-21.5c-2.6,0.1-4.8-2-4.9-4.7c0,0,0,0,0,0V38.8h-3.6
		c0,0.2,0,0.4-0.1,0.7v21.5c0,3.3,3.4,6,7.5,6h23.4c4.1,0,7.5-2.7,7.5-6V39.4C480.6,39.2,480.6,39,480.6,38.8"/>
	<rect x="451.9" y="35.1" class="st3" width="7" height="6.4"/>
	<rect x="464.2" y="35.1" class="st3" width="7" height="6.4"/>
	<path class="st3" d="M527.5,46.8h3.9v19.7h-3.9L527.5,46.8z M527.4,38.7h3.9v3.6h-3.9L527.4,38.7z"/>
	<path class="st3" d="M533.9,46.8h3.9v19.7h-3.9V46.8z M533.8,38.7h3.9v3.6h-3.9V38.7z"/>
	<path class="st3" d="M516.7,62.5c-2.8,0-5-2.2-5-5s2.2-5,5-5s5,2.2,5,5S519.4,62.5,516.7,62.5 M516.7,48.3c-1.8,0-3.5,0.5-5,1.5
		v-11h-4.2v18.7c0,5.1,4.1,9.2,9.2,9.2c5.1,0,9.2-4.1,9.2-9.2S521.7,48.3,516.7,48.3"/>
	<path class="st3" d="M501.3,38.8v17.4c0,3-2.1,5.7-5,6.4c-0.5,0.1-1.1,0.1-1.6,0.1c-0.5,0-1,0-1.6-0.1c-3-0.7-5.1-3.4-5.1-6.5V38.8
		h-3.9v18.5l0,0c0.6,5.8,5.7,10,11.5,9.4c5-0.5,8.9-4.4,9.4-9.4h0V38.8H501.3z"/>
	<path class="st3" d="M327.6,63.6v-32h14.1c6.7,0,10.5,4.6,10.5,10s-3.8,10-10.5,10h-8.4v12H327.6z M346.4,41.6
		c0-3.1-2.3-5.1-5.5-5.1h-7.7v10.2h7.7C344.1,46.7,346.4,44.7,346.4,41.6L346.4,41.6z"/>
	<path class="st3" d="M369.9,63.6v-2.5c-2,2-4.7,3.1-7.5,3c-3.8,0-8-2.5-8-7.6c0-5.4,4.3-7.5,8-7.5c2.8-0.2,5.6,0.9,7.5,3v-3.5
		c0-2.7-2.2-4.3-5.4-4.3c-2.6,0-5.1,1.1-6.8,3l-2.1-3.5c2.6-2.5,6.1-3.8,9.7-3.8c5.1,0,9.7,2.2,9.7,8.4v15.3H369.9z M369.9,58.3
		v-3.5c-1.4-1.6-3.4-2.5-5.5-2.4c-2.8,0-4.9,1.6-4.9,4.2s2.1,4.1,4.9,4.1C366.4,60.8,368.5,59.9,369.9,58.3z"/>
	<path class="st3" d="M381.1,69.6l2.4-3.7c1.9,2.2,4.3,3,7.3,3c3.3,0,6.9-1.5,6.9-6.3v-2.8c-1.7,2.4-4.5,3.8-7.4,3.8
		c-5.9,0-10.3-4.3-10.3-11.9s4.3-11.9,10.3-11.9c2.9,0,5.7,1.4,7.4,3.8v-3.2h5v22c0,8.4-6.2,10.6-11.9,10.6
		C386.9,73,384,72.1,381.1,69.6z M397.7,56.1v-8.6c-1.4-1.9-3.6-3.1-6-3.1c-4,0-6.5,3-6.5,7.4s2.6,7.4,6.5,7.4
		C394.1,59.1,396.3,58,397.7,56.1z"/>
	<path class="st3" d="M423.4,63.6v-2.5c-2,2-4.7,3.1-7.5,3c-3.8,0-8.1-2.5-8.1-7.7c0-5.3,4.3-7.5,8.1-7.5c2.8-0.2,5.6,0.9,7.5,3
		v-3.4c0-2.7-2.2-4.3-5.4-4.3c-2.6,0-5.1,1.1-6.9,3l-2.1-3.5c2.6-2.5,6.1-3.8,9.7-3.8c5.1,0,9.6,2.2,9.6,8.4v15.3H423.4z
		 M423.4,58.3v-3.5c-1.4-1.6-3.4-2.5-5.5-2.4c-2.8,0-5,1.6-5,4.2s2.1,4.1,5,4.1C420,60.8,422.1,59.9,423.4,58.3z"/>
</g>
<g>
	<path class="st4" d="M351.9,109.3h170.5c25.7,0,46.5,20.8,46.5,46.5l0,0c0,25.7-20.8,46.5-46.5,46.5H351.9
		c-25.7,0-46.5-20.8-46.5-46.5l0,0C305.4,130.1,326.2,109.3,351.9,109.3z"/>
	<path class="st1" d="M485.6,146.9h-3.5v20.5c0,2.6-2.2,4.7-4.9,4.7c0,0,0,0,0,0h-21.5c-2.6,0.1-4.8-2-4.9-4.7c0,0,0,0,0,0v-20.5
		h-3.6c0,0.2,0,0.4-0.1,0.7v21.5c0,3.3,3.4,6,7.5,6h23.4c4.1,0,7.5-2.7,7.5-6v-21.5C485.7,147.4,485.6,147.1,485.6,146.9"/>
	<rect x="456.9" y="143.3" class="st1" width="7" height="6.4"/>
	<rect x="469.2" y="143.3" class="st1" width="7" height="6.4"/>
	<path class="st1" d="M532.5,155h3.9v19.7h-3.9L532.5,155z M532.4,146.8h3.9v3.6h-3.9L532.4,146.8z"/>
	<path class="st1" d="M539,155h3.9v19.7H539V155z M538.9,146.8h3.9v3.6h-3.9V146.8z"/>
	<path class="st1" d="M521.7,170.6c-2.8,0-5-2.2-5-5s2.2-5,5-5c2.8,0,5,2.2,5,5S524.5,170.6,521.7,170.6 M521.7,156.5
		c-1.8,0-3.5,0.5-5,1.5v-11h-4.2v18.7c0,5.1,4.1,9.2,9.2,9.2c5.1,0,9.2-4.1,9.2-9.2S526.7,156.5,521.7,156.5"/>
	<path class="st1" d="M506.4,146.9v17.4c0,3-2.1,5.7-5,6.4c-0.5,0.1-1.1,0.1-1.6,0.1c-0.5,0-1,0-1.6-0.1c-3-0.7-5.1-3.4-5.1-6.4
		v-17.4h-3.9v18.4l0,0c0.6,5.8,5.7,10,11.5,9.4c5-0.5,8.9-4.4,9.4-9.4h0v-18.4H506.4z"/>
	<path class="st1" d="M332.7,171.7v-32h14.1c6.7,0,10.5,4.6,10.5,10s-3.8,10-10.5,10h-8.4v12H332.7z M351.4,149.7
		c0-3.1-2.3-5.1-5.5-5.1h-7.7v10.2h7.7C349.1,154.9,351.4,152.8,351.4,149.7L351.4,149.7z"/>
	<path class="st1" d="M374.9,171.7v-2.5c-2,2-4.7,3.1-7.5,3c-3.8,0-8-2.5-8-7.6c0-5.4,4.3-7.5,8-7.5c2.8-0.2,5.6,0.9,7.5,3v-3.5
		c0-2.7-2.2-4.3-5.4-4.3c-2.6,0-5.1,1.1-6.8,3l-2.1-3.5c2.6-2.5,6.1-3.8,9.7-3.8c5.1,0,9.6,2.2,9.6,8.4v15.3H374.9z M374.9,166.5
		V163c-1.4-1.6-3.4-2.5-5.5-2.4c-2.8,0-4.9,1.6-4.9,4.2s2.1,4.1,4.9,4.1C371.5,169,373.5,168.1,374.9,166.5z"/>
	<path class="st1" d="M386.2,177.7l2.3-3.7c1.9,2.2,4.3,3,7.4,3c3.3,0,6.9-1.5,6.9-6.3V168c-1.7,2.4-4.5,3.8-7.4,3.8
		c-5.9,0-10.3-4.3-10.3-11.9c0-7.6,4.3-11.9,10.3-11.9c2.9,0,5.7,1.4,7.4,3.8v-3.2h5v22c0,8.4-6.2,10.6-11.9,10.6
		C391.9,181.2,389,180.3,386.2,177.7z M402.7,164.2v-8.6c-1.4-1.9-3.6-3.1-6-3.1c-4,0-6.5,3-6.5,7.4s2.5,7.4,6.5,7.4
		C399.1,167.3,401.3,166.1,402.7,164.2z"/>
	<path class="st1" d="M428.5,171.7v-2.5c-2,2-4.7,3.1-7.5,3c-3.8,0-8.1-2.5-8.1-7.7c0-5.3,4.3-7.5,8.1-7.5c2.8-0.2,5.6,0.9,7.5,3
		v-3.4c0-2.7-2.2-4.3-5.4-4.3c-2.6,0-5.1,1.1-6.9,3l-2.1-3.5c2.6-2.5,6.1-3.8,9.7-3.8c5.1,0,9.6,2.2,9.6,8.4v15.3H428.5z
		 M428.5,166.5V163c-1.4-1.6-3.4-2.5-5.5-2.4c-2.8,0-5,1.6-5,4.2s2.1,4.1,5,4.1C425.1,169,427.1,168.1,428.5,166.5z"/>
</g>
</svg>
