<svg xmlns="http://www.w3.org/2000/svg" viewBox="0 0 118.56 26.43"><defs><style>.cls-1{fill:#f9f9f9;}</style></defs><g id="Capa_2" data-name="Capa 2"><g id="LOGO"><path class="cls-1" d="M28.41,2.7H25.82V17.93a3.55,3.55,0,0,1-3.61,3.49H6.29a3.54,3.54,0,0,1-3.6-3.49V2.7H0a2.63,2.63,0,0,0,0,.49V19.12c0,2.47,2.48,4.47,5.54,4.47H22.9c3.06,0,5.54-2,5.54-4.47V3.19A3.91,3.91,0,0,0,28.41,2.7Z"/><rect class="cls-1" x="7.12" width="5.22" height="4.73"/><rect class="cls-1" x="16.26" width="5.22" height="4.73"/><path class="cls-1" d="M63.11,5.27V2.61H66V5.27Zm.07,18V8.67H66V23.28Z"/><path class="cls-1" d="M67.89,5.27V2.61h2.86V5.27Zm.08,18V8.67h2.86V23.28Z"/><path class="cls-1" d="M55.18,9.77a6.75,6.75,0,0,0-3.69,1.1V2.7H48.38V16.56a6.8,6.8,0,1,0,6.8-6.79Zm0,10.53a3.74,3.74,0,1,1,3.73-3.74A3.74,3.74,0,0,1,55.18,20.3Z"/><path class="cls-1" d="M43.8,2.7V15.64a4.91,4.91,0,0,1-3.74,4.77,7.31,7.31,0,0,1-1.18.1,7,7,0,0,1-1.15-.09A4.92,4.92,0,0,1,34,15.64h0V2.7H31.09V16.38h0a7.79,7.79,0,0,0,15.5,0h0V2.7Z"/><path class="cls-1" d="M75.84,15.25v.88A4,4,0,0,1,77,15.31,3.47,3.47,0,0,1,78.38,15a3.54,3.54,0,0,1,2.68,1.19,4.33,4.33,0,0,1,1.1,3.05,4.23,4.23,0,0,1-1.14,3,3.6,3.6,0,0,1-2.7,1.2A3.44,3.44,0,0,1,77,23.25a4.06,4.06,0,0,1-1.19-.81v3.79h-2v-11ZM78,16.9a2.11,2.11,0,0,0-1.58.65,2.35,2.35,0,0,0-.63,1.7A2.43,2.43,0,0,0,76.38,21a2.17,2.17,0,0,0,3.14,0,2.39,2.39,0,0,0,.63-1.71,2.42,2.42,0,0,0-.62-1.7A2.08,2.08,0,0,0,78,16.9Z"/><path class="cls-1" d="M89.76,15.25h2v8h-2v-.85a4.16,4.16,0,0,1-1.18.81,3.44,3.44,0,0,1-1.29.24,3.6,3.6,0,0,1-2.7-1.2,4.26,4.26,0,0,1-1.13-3,4.28,4.28,0,0,1,1.1-3.05,3.58,3.58,0,0,1,4-.92,4,4,0,0,1,1.17.82ZM87.64,16.9a2,2,0,0,0-1.55.66,2.64,2.64,0,0,0,0,3.41,2,2,0,0,0,1.55.68A2.08,2.08,0,0,0,89.22,21a2.43,2.43,0,0,0,.63-1.74,2.35,2.35,0,0,0-.63-1.7A2.11,2.11,0,0,0,87.64,16.9Z"/><path class="cls-1" d="M99.76,15.25h2v6.88a4.59,4.59,0,0,1-.82,3,4.1,4.1,0,0,1-3.32,1.3,5.77,5.77,0,0,1-2-.29,3.48,3.48,0,0,1-2.18-2.26h2.23a1.79,1.79,0,0,0,.76.51,3,3,0,0,0,1.1.17,2.84,2.84,0,0,0,1.3-.25,1.44,1.44,0,0,0,.7-.65,3.16,3.16,0,0,0,.21-1.37,3.38,3.38,0,0,1-1.12.76,3.45,3.45,0,0,1-1.32.24,3.65,3.65,0,0,1-2.74-1.17,4.12,4.12,0,0,1-1.11-3,4.1,4.1,0,0,1,1.18-3.07A3.53,3.53,0,0,1,97.21,15a3.4,3.4,0,0,1,1.31.26,4.41,4.41,0,0,1,1.24.83Zm-2.09,1.68a2.13,2.13,0,0,0-1.58.63,2.42,2.42,0,0,0,0,3.26,2.13,2.13,0,0,0,1.59.64,2.07,2.07,0,0,0,1.55-.63,2.22,2.22,0,0,0,.61-1.64,2.25,2.25,0,0,0-.61-1.64A2.11,2.11,0,0,0,97.67,16.93Z"/><path class="cls-1" d="M107.58,15a4.26,4.26,0,0,1,2.14.57,4.05,4.05,0,0,1,1.56,1.54,4.12,4.12,0,0,1,.56,2.11,4.23,4.23,0,0,1-2.1,3.68,4.27,4.27,0,0,1-2.15.55,4,4,0,0,1-3-1.23,4.25,4.25,0,0,1,.16-6.13A4,4,0,0,1,107.58,15Zm0,1.9a2.1,2.1,0,0,0-1.56.65,2.33,2.33,0,0,0-.63,1.68A2.39,2.39,0,0,0,106,21a2.21,2.21,0,0,0,3.14,0,2.34,2.34,0,0,0,.63-1.69,2.3,2.3,0,0,0-.62-1.68A2.08,2.08,0,0,0,107.61,16.94Z"/><path class="cls-1" d="M118.41,16.37l-1.25,1.25a2.08,2.08,0,0,0-1.38-.75.85.85,0,0,0-.53.14.44.44,0,0,0-.07.66,2.34,2.34,0,0,0,.6.37l.74.37a4.26,4.26,0,0,1,1.6,1.18,2.29,2.29,0,0,1,.44,1.4,2.32,2.32,0,0,1-.79,1.79,3,3,0,0,1-2.11.71,3.33,3.33,0,0,1-2.8-1.37l1.24-1.35a2.85,2.85,0,0,0,.83.67,1.83,1.83,0,0,0,.84.25,1,1,0,0,0,.65-.19.57.57,0,0,0,.24-.44c0-.31-.29-.62-.88-.91l-.68-.34q-1.95-1-1.95-2.46a2.13,2.13,0,0,1,.74-1.63,2.66,2.66,0,0,1,1.88-.68,3.37,3.37,0,0,1,1.47.34A3.27,3.27,0,0,1,118.41,16.37Z"/></g></g></svg>